<?xml version="1.0" encoding="UTF-8" standalone="no"?>
<!-- Generated by graphviz version 2.43.0 (0)
 -->

<!-- Title: G Pages: 1 -->

<svg
   width="639pt"
   height="430pt"
   viewBox="0.00 0.00 638.52 429.71"
   version="1.1"
   id="svg378"
   sodipodi:docname="getphylo.svg"
   inkscape:version="1.1.2 (b8e25be833, 2022-02-05)"
   xmlns:inkscape="http://www.inkscape.org/namespaces/inkscape"
   xmlns:sodipodi="http://sodipodi.sourceforge.net/DTD/sodipodi-0.dtd"
   xmlns="http://www.w3.org/2000/svg"
   xmlns:svg="http://www.w3.org/2000/svg">
  <defs
     id="defs382">
    <style
       id="style4">.edge&gt;path:hover{stroke-width:8}</style>
    <style
       id="style301">.edge&gt;path:hover{stroke-width:8}</style>
    <style
       id="style44">.edge&gt;path:hover{stroke-width:8}</style>
    <style
       id="style93">.edge&gt;path:hover{stroke-width:8}</style>
    <style
       id="style229">.edge&gt;path:hover{stroke-width:8}</style>
  </defs>
  <sodipodi:namedview
     id="namedview380"
     pagecolor="#ffffff"
     bordercolor="#666666"
     borderopacity="1.0"
     inkscape:pageshadow="2"
     inkscape:pageopacity="0.0"
     inkscape:pagecheckerboard="0"
     inkscape:document-units="pt"
     showgrid="false"
     inkscape:zoom="1.2994186"
     inkscape:cx="359.00671"
     inkscape:cy="177.00224"
     inkscape:window-width="1920"
     inkscape:window-height="1137"
     inkscape:window-x="-8"
     inkscape:window-y="-8"
     inkscape:window-maximized="1"
     inkscape:current-layer="svg378" />
  <polygon
     fill="#ffffff"
     stroke="transparent"
     points="634.52,-425.71 634.52,4 -4,4 -4,-425.71 "
     id="polygon6"
     transform="translate(4,425.71)" />
  <g
     id="node1"
     class="node"
     transform="translate(4,425.71)">
    <title
       id="title8">Bio</title>
    <style
       id="style10">.edge&gt;path:hover{stroke-width:8}</style>
    <ellipse
       fill="#c24747"
       stroke="#000000"
       cx="120.67"
       cy="-403.70999"
       rx="27"
       ry="18"
       id="ellipse12" />
    <text
       text-anchor="middle"
       x="120.67"
       y="-401.20999"
       font-family="Helvetica, sans-Serif"
       font-size="10px"
       fill="#ffffff"
       id="text14">Bio</text>
  </g>
  <g
     id="node8"
     class="node"
     transform="translate(4,425.71)">
    <title
       id="title17">getphylo_io</title>
    <style
       id="style19">.edge&gt;path:hover{stroke-width:8}</style>
    <ellipse
       fill="#0bd6d6"
       stroke="#000000"
       cx="120.67"
       cy="-250.07001"
       rx="41.59"
       ry="18"
       id="ellipse21" />
    <text
       text-anchor="middle"
       x="120.67"
       y="-247.57001"
       font-family="Helvetica, sans-Serif"
       font-size="10px"
       fill="#000000"
       id="text23">getphylo.io</text>
  </g>
  <g
     id="edge1"
     class="edge"
     transform="translate(4,425.71)">
    <title
       id="title26">Bio-&gt;getphylo_io</title>
    <style
       id="style28">.edge&gt;path:hover{stroke-width:8}</style>
    <path
       fill="none"
       stroke="#000000"
       d="m 118.29,-385.54 c -1.53,15.04 -2.43,37.34 2.38,56.05"
       id="path30" />
  </g>
  <g
     id="node2"
     class="node"
     transform="translate(4,425.71)">
    <title
       id="title33">Bio_SeqIO</title>
    <style
       id="style35">.edge&gt;path:hover{stroke-width:8}</style>
    <ellipse
       fill="#b83d3d"
       stroke="#000000"
       cx="37.669998"
       cy="-403.70999"
       rx="37.849998"
       ry="18"
       id="ellipse37" />
    <text
       text-anchor="middle"
       x="37.669998"
       y="-401.20999"
       font-family="Helvetica, sans-Serif"
       font-size="10px"
       fill="#ffffff"
       id="text39">Bio.SeqIO</text>
  </g>
  <path
     fill="none"
     stroke="#000000"
     d="m 67.61,35.20001 c 21.52,11.96 49.73,32.55 57.06,61.02"
     id="path46" />
  <path
     fill="none"
     stroke="#000000"
     d="m 124.67,96.22 c 4.13,16.66872 4.24,35.98029 3.26,51.39001"
     id="path48"
     style="stroke-width:1.02005" />
  <polygon
     fill="#b83d3d"
     stroke="#000000"
     points="127.41,-277.73 123.07,-268.07 120.44,-278.33 "
     id="polygon50"
     transform="translate(4,425.71001)" />
  <g
     id="node3"
     class="node"
     transform="translate(4,425.71)">
    <title
       id="title53">getphylo_align</title>
    <style
       id="style55">.edge&gt;path:hover{stroke-width:8}</style>
    <ellipse
       fill="#35a1a1"
       stroke="#000000"
       cx="298.67001"
       cy="-93.209999"
       rx="50.75"
       ry="18"
       id="ellipse57" />
    <text
       text-anchor="middle"
       x="298.67001"
       y="-90.709999"
       font-family="Helvetica, sans-Serif"
       font-size="10px"
       fill="#000000"
       id="text59">getphylo.align</text>
  </g>
  <g
     id="node9"
     class="node"
     transform="translate(4,425.71)">
    <title
       id="title62">getphylo_main</title>
    <style
       id="style64">.edge&gt;path:hover{stroke-width:8}</style>
    <ellipse
       fill="#378181"
       stroke="#000000"
       cx="435.67001"
       cy="-18"
       rx="51.43"
       ry="18"
       id="ellipse66" />
    <text
       text-anchor="middle"
       x="435.67001"
       y="-15.5"
       font-family="Helvetica, sans-Serif"
       font-size="10px"
       fill="#ffffff"
       id="text68">getphylo.main</text>
  </g>
  <g
     id="edge3"
     class="edge"
     transform="translate(4,425.71)">
    <title
       id="title71">getphylo_align-&gt;getphylo_main</title>
    <style
       id="style73">.edge&gt;path:hover{stroke-width:8}</style>
    <path
       fill="none"
       stroke="#000000"
       d="m 325.41,-77.92 c 21.18,11.31 50.96,27.23 74.23,39.67"
       id="path75" />
    <polygon
       fill="#35a1a1"
       stroke="#000000"
       points="398.06,-35.13 401.36,-41.3 408.53,-33.5 "
       id="polygon77" />
  </g>
  <g
     id="node4"
     class="node"
     transform="translate(4,425.71)">
    <title
       id="title80">getphylo_console</title>
    <style
       id="style82">.edge&gt;path:hover{stroke-width:8}</style>
    <ellipse
       fill="#10f9f9"
       stroke="#000000"
       cx="298.67001"
       cy="-328.48999"
       rx="43.68"
       ry="21.43"
       id="ellipse84" />
    <text
       text-anchor="middle"
       x="298.67001"
       y="-331.48999"
       font-family="Helvetica, sans-Serif"
       font-size="10px"
       fill="#000000"
       id="text86">getphylo.</text>
    <text
       text-anchor="middle"
       x="298.67001"
       y="-320.48999"
       font-family="Helvetica, sans-Serif"
       font-size="10px"
       fill="#000000"
       id="text88">console</text>
  </g>
  <path
     fill="none"
     stroke="#000000"
     d="m 346.32,100.39 c 46.53,5.23737 116.25,22.18182 136.35,76.25"
     id="path95"
     style="stroke-width:1.01338" />
  <path
     fill="none"
     stroke="#000000"
     d="m 482.67,176.64 c 4.4,11.52 -9.15,12.8 -19,20.22 -27.94,21.05 -42.05,14.95 -70,36 -9.84,7.42 -10.66,11.13 -19,20.21"
     id="path97" />
  <g
     id="node5"
     class="node"
     transform="translate(4,425.71)">
    <title
       id="title100">getphylo_diamond</title>
    <style
       id="style102">.edge&gt;path:hover{stroke-width:8}</style>
    <ellipse
       fill="#31c4c4"
       stroke="#000000"
       cx="262.67001"
       cy="-250.07001"
       rx="43.68"
       ry="21.43"
       id="ellipse104" />
    <text
       text-anchor="middle"
       x="262.67001"
       y="-253.07001"
       font-family="Helvetica, sans-Serif"
       font-size="10px"
       fill="#000000"
       id="text106">getphylo.</text>
    <text
       text-anchor="middle"
       x="262.67001"
       y="-242.07001"
       font-family="Helvetica, sans-Serif"
       font-size="10px"
       fill="#000000"
       id="text108">diamond</text>
  </g>
  <g
     id="edge5"
     class="edge"
     transform="translate(4,425.71)">
    <title
       id="title111">getphylo_console-&gt;getphylo_diamond</title>
    <style
       id="style113">.edge&gt;path:hover{stroke-width:8}</style>
    <path
       fill="none"
       stroke="#000000"
       d="m 289.22,-307.41 c -3.93,8.34 -8.56,18.17 -12.85,27.27"
       id="path115" />
    <polygon
       fill="#10f9f9"
       stroke="#000000"
       points="273.16,-281.55 279.5,-278.57 272.07,-271.01 "
       id="polygon117" />
  </g>
  <g
     id="node6"
     class="node"
     transform="translate(4,425.71)">
    <title
       id="title120">getphylo_extract</title>
    <style
       id="style122">.edge&gt;path:hover{stroke-width:8}</style>
    <ellipse
       fill="#38a8a8"
       stroke="#000000"
       cx="192.67"
       cy="-171.64"
       rx="43.68"
       ry="21.43"
       id="ellipse124" />
    <text
       text-anchor="middle"
       x="192.67"
       y="-174.64"
       font-family="Helvetica, sans-Serif"
       font-size="10px"
       fill="#000000"
       id="text126">getphylo.</text>
    <text
       text-anchor="middle"
       x="192.67"
       y="-163.64"
       font-family="Helvetica, sans-Serif"
       font-size="10px"
       fill="#000000"
       id="text128">extract</text>
  </g>
  <g
     id="edge6"
     class="edge"
     transform="translate(4,425.71)">
    <title
       id="title131">getphylo_console-&gt;getphylo_extract</title>
    <style
       id="style133">.edge&gt;path:hover{stroke-width:8}</style>
    <path
       fill="none"
       stroke="#000000"
       d="m 265.25,-314.61 c -19.28,9.17 -42.27,23.43 -55.58,43.33 -13.4,20.06 -17.26,47.36 -17.99,68.16"
       id="path135" />
    <polygon
       fill="#10f9f9"
       stroke="#000000"
       points="188.17,-202.95 195.17,-202.86 191.54,-192.91 "
       id="polygon137" />
  </g>
  <g
     id="node7"
     class="node"
     transform="translate(4,425.71)">
    <title
       id="title140">getphylo_fasttree</title>
    <style
       id="style142">.edge&gt;path:hover{stroke-width:8}</style>
    <ellipse
       fill="#3ab0b0"
       stroke="#000000"
       cx="442.67001"
       cy="-171.64"
       rx="43.68"
       ry="21.43"
       id="ellipse144" />
    <text
       text-anchor="middle"
       x="442.67001"
       y="-174.64"
       font-family="Helvetica, sans-Serif"
       font-size="10px"
       fill="#000000"
       id="text146">getphylo.</text>
    <text
       text-anchor="middle"
       x="442.67001"
       y="-163.64"
       font-family="Helvetica, sans-Serif"
       font-size="10px"
       fill="#000000"
       id="text148">fasttree</text>
  </g>
  <g
     id="edge7"
     class="edge"
     transform="translate(4,425.71)">
    <title
       id="title151">getphylo_console-&gt;getphylo_fasttree</title>
    <style
       id="style153">.edge&gt;path:hover{stroke-width:8}</style>
    <path
       fill="none"
       stroke="#000000"
       d="m 478.67,-249.07 c 6.48,16.96 -1.71,35.37 -11.91,49.88"
       id="path155" />
    <polygon
       fill="#10f9f9"
       stroke="#000000"
       points="463.91,-201.22 469.47,-196.97 460.62,-191.14 "
       id="polygon157" />
  </g>
  <g
     id="edge8"
     class="edge"
     transform="translate(4,425.71)">
    <title
       id="title160">getphylo_console-&gt;getphylo_io</title>
    <style
       id="style162">.edge&gt;path:hover{stroke-width:8}</style>
    <path
       fill="none"
       stroke="#000000"
       d="m 266.85,-313.83 c -30.27,13 -75.84,32.56 -108.04,46.39"
       id="path164" />
    <polygon
       fill="#10f9f9"
       stroke="#000000"
       points="157.09,-270.51 159.85,-264.08 149.28,-263.35 "
       id="polygon166" />
  </g>
  <g
     id="edge9"
     class="edge"
     transform="translate(4,425.71)">
    <title
       id="title169">getphylo_console-&gt;getphylo_main</title>
    <style
       id="style171">.edge&gt;path:hover{stroke-width:8}</style>
    <path
       fill="none"
       stroke="#000000"
       d="m 514.67,-170.64 c -0.8,44.64 3.14,59.87 -19,98.64 -6.97,12.22 -17.81,23.06 -28.36,31.7"
       id="path173" />
    <polygon
       fill="#10f9f9"
       stroke="#000000"
       points="465.11,-43.03 469.41,-37.5 459.36,-34.13 "
       id="polygon175" />
  </g>
  <g
     id="node10"
     class="node"
     transform="translate(4,425.71)">
    <title
       id="title178">getphylo_muscle</title>
    <style
       id="style180">.edge&gt;path:hover{stroke-width:8}</style>
    <ellipse
       fill="#3db8b8"
       stroke="#000000"
       cx="406.67001"
       cy="-250.07001"
       rx="43.68"
       ry="21.43"
       id="ellipse182" />
    <text
       text-anchor="middle"
       x="406.67001"
       y="-253.07001"
       font-family="Helvetica, sans-Serif"
       font-size="10px"
       fill="#000000"
       id="text184">getphylo.</text>
    <text
       text-anchor="middle"
       x="406.67001"
       y="-242.07001"
       font-family="Helvetica, sans-Serif"
       font-size="10px"
       fill="#000000"
       id="text186">muscle</text>
  </g>
  <g
     id="edge10"
     class="edge"
     transform="translate(4,425.71)">
    <title
       id="title189">getphylo_console-&gt;getphylo_muscle</title>
    <style
       id="style191">.edge&gt;path:hover{stroke-width:8}</style>
    <path
       fill="none"
       stroke="#000000"
       d="m 322.64,-310.53 c 15.24,10.78 35.16,24.88 51.78,36.64"
       id="path193" />
    <polygon
       fill="#10f9f9"
       stroke="#000000"
       points="372.59,-270.9 376.63,-276.61 382.77,-267.98 "
       id="polygon195" />
  </g>
  <g
     id="node12"
     class="node"
     transform="translate(4,425.71)">
    <title
       id="title198">getphylo_screen</title>
    <style
       id="style200">.edge&gt;path:hover{stroke-width:8}</style>
    <ellipse
       fill="#2db4b4"
       stroke="#000000"
       cx="298.67001"
       cy="-171.64"
       rx="43.68"
       ry="21.43"
       id="ellipse202" />
    <text
       text-anchor="middle"
       x="298.67001"
       y="-174.64"
       font-family="Helvetica, sans-Serif"
       font-size="10px"
       fill="#000000"
       id="text204">getphylo.</text>
    <text
       text-anchor="middle"
       x="298.67001"
       y="-163.64"
       font-family="Helvetica, sans-Serif"
       font-size="10px"
       fill="#000000"
       id="text206">screen</text>
  </g>
  <g
     id="edge11"
     class="edge"
     transform="translate(4,425.71)">
    <title
       id="title209">getphylo_console-&gt;getphylo_screen</title>
    <style
       id="style211">.edge&gt;path:hover{stroke-width:8}</style>
    <path
       fill="none"
       stroke="#000000"
       d="m 306.28,-307.53 c 3.63,10.6 7.57,23.95 9.39,36.25 2.76,18.65 2.76,23.77 0,42.43 -1.29,8.75 -3.66,18.02 -6.22,26.46"
       id="path213" />
    <polygon
       fill="#10f9f9"
       stroke="#000000"
       points="306.03,-203.2 312.69,-201.04 306.28,-192.61 "
       id="polygon215" />
  </g>
  <g
     id="node13"
     class="node"
     transform="translate(4,425.71)">
    <title
       id="title218">getphylo_trees</title>
    <style
       id="style220">.edge&gt;path:hover{stroke-width:8}</style>
    <ellipse
       fill="#3ab0b0"
       stroke="#000000"
       cx="435.67001"
       cy="-93.209999"
       rx="51.43"
       ry="18"
       id="ellipse222" />
    <text
       text-anchor="middle"
       x="435.67001"
       y="-90.709999"
       font-family="Helvetica, sans-Serif"
       font-size="10px"
       fill="#000000"
       id="text224">getphylo.trees</text>
  </g>
  <path
     fill="none"
     stroke="#000000"
     d="m 482.67,176.63998 c 13.4,35.99797 36.68,39.90767 36,78.43002"
     id="path231"
     style="stroke-width:1.013" />
  <path
     fill="none"
     stroke="#000000"
     d="m 518.67,255.06998 c -0.44,24.76 -20.75,44.06 -40.65,57.07"
     id="path233" />
  <polygon
     fill="#10f9f9"
     stroke="#000000"
     points="475.63,-110.45 465.27,-108.21 471.97,-116.42 "
     id="polygon235"
     transform="translate(4,425.70998)" />
  <g
     id="edge13"
     class="edge"
     transform="translate(4,425.71)">
    <title
       id="title238">getphylo_diamond-&gt;getphylo_extract</title>
    <style
       id="style240">.edge&gt;path:hover{stroke-width:8}</style>
    <path
       fill="none"
       stroke="#000000"
       d="m 245.37,-230.17 c -8.65,9.44 -19.25,21.01 -28.67,31.3"
       id="path242" />
    <polygon
       fill="#31c4c4"
       stroke="#000000"
       points="213.95,-201.05 219.11,-196.32 209.78,-191.31 "
       id="polygon244" />
  </g>
  <g
     id="edge14"
     class="edge"
     transform="translate(4,425.71)">
    <title
       id="title247">getphylo_diamond-&gt;getphylo_screen</title>
    <style
       id="style249">.edge&gt;path:hover{stroke-width:8}</style>
    <path
       fill="none"
       stroke="#000000"
       d="m 272.13,-228.99 c 3.93,8.34 8.56,18.18 12.85,27.28"
       id="path251" />
    <polygon
       fill="#31c4c4"
       stroke="#000000"
       points="281.85,-200.14 288.18,-203.12 289.28,-192.59 "
       id="polygon253" />
  </g>
  <g
     id="edge15"
     class="edge"
     transform="matrix(1,0,0,1.035524,4,431.05671)">
    <title
       id="title256">getphylo_extract-&gt;getphylo_main</title>
    <style
       id="style258">.edge&gt;path:hover{stroke-width:8}</style>
    <path
       fill="none"
       stroke="#000000"
       d="m 187.14,-150.51 c -3.29,16.44 -5.03,39.58 5.53,56.3"
       id="path260" />
  </g>
  <g
     id="edge16"
     class="edge"
     transform="translate(4,425.71)">
    <title
       id="title263">getphylo_fasttree-&gt;getphylo_trees</title>
    <style
       id="style265">.edge&gt;path:hover{stroke-width:8}</style>
    <path
       fill="none"
       stroke="#000000"
       d="m 440.8,-150.16 c -0.8,8.74 -1.75,19.07 -2.61,28.46"
       id="path267" />
    <polygon
       fill="#3ab0b0"
       stroke="#000000"
       points="434.7,-121.92 441.67,-121.28 437.27,-111.64 "
       id="polygon269" />
  </g>
  <g
     id="edge17"
     class="edge"
     transform="matrix(1,0,0,1.0293427,4,428.71704)">
    <title
       id="title272">getphylo_io-&gt;getphylo_align</title>
    <style
       id="style274">.edge&gt;path:hover{stroke-width:8}</style>
    <path
       fill="none"
       stroke="#000000"
       d="m 120.67,-170.64 c 5.97,10.79 8.68,13.48 19,20.21 32.67,21.32 74.4,35.67 106.91,44.54"
       id="path276" />
    <polygon
       fill="#0bd6d6"
       stroke="#000000"
       points="247.57,-109.25 256.35,-103.32 245.79,-102.48 "
       id="polygon278" />
  </g>
  <g
     id="edge18"
     class="edge"
     transform="translate(4,425.71)">
    <title
       id="title281">getphylo_io-&gt;getphylo_extract</title>
    <style
       id="style283">.edge&gt;path:hover{stroke-width:8}</style>
    <path
       fill="none"
       stroke="#000000"
       d="m 135.59,-233.23 c 9.46,10.04 21.92,23.27 32.79,34.8"
       id="path285" />
    <polygon
       fill="#0bd6d6"
       stroke="#000000"
       points="165.83,-196.03 170.93,-200.83 175.24,-191.15 "
       id="polygon287" />
  </g>
  <g
     id="edge19"
     class="edge"
     transform="translate(4,425.71)">
    <title
       id="title290">getphylo_io-&gt;getphylo_fasttree</title>
    <style
       id="style292">.edge&gt;path:hover{stroke-width:8}</style>
    <path
       fill="none"
       stroke="#000000"
       d="m 156.58,-240.74 c 16.2,3.72 35.59,8.1 53.09,11.89 77.61,16.79 98.46,14.88 175,36 4.7,1.29 9.58,2.77 14.41,4.32"
       id="path294" />
    <polygon
       fill="#0bd6d6"
       stroke="#000000"
       points="398.28,-185.1 400.49,-191.74 408.87,-185.26 "
       id="polygon296" />
  </g>
  <path
     fill="none"
     stroke="#000000"
     d="m 120.21,193.6 c -3.3,16.31 -5.68,41.13 4.46,59.47"
     id="path303" />
  <path
     fill="none"
     stroke="#000000"
     d="m 124.67,253.07 c 22.59,42.97738 47.08,38.91536 72,80.43"
     id="path305"
     style="stroke-width:1.02583" />
  <path
     fill="none"
     stroke="#000000"
     d="m 196.67,333.5 c 20.06,31.73 121.06,53.65 186.38,64.77"
     id="path307" />
  <polygon
     fill="#0bd6d6"
     stroke="#000000"
     points="379.91,-30.85 389.2,-25.75 378.76,-23.94 "
     id="polygon309"
     transform="translate(4,425.71)" />
  <g
     id="edge21"
     class="edge"
     transform="translate(4,425.71)">
    <title
       id="title312">getphylo_io-&gt;getphylo_screen</title>
    <style
       id="style314">.edge&gt;path:hover{stroke-width:8}</style>
    <path
       fill="none"
       stroke="#000000"
       d="m 149.27,-236.79 c 29.25,12.56 74.98,32.19 108.14,46.43"
       id="path316" />
    <polygon
       fill="#0bd6d6"
       stroke="#000000"
       points="256.27,-187.04 259.03,-193.47 266.84,-186.31 "
       id="polygon318" />
  </g>
  <g
     id="edge22"
     class="edge"
     transform="translate(4,425.71)">
    <title
       id="title321">getphylo_muscle-&gt;getphylo_align</title>
    <style
       id="style323">.edge&gt;path:hover{stroke-width:8}</style>
    <path
       fill="none"
       stroke="#000000"
       d="m 400.92,-228.94 c -5.56,16.64 -15.37,40.09 -30.25,56.3"
       id="path325" />
    <path
       fill="none"
       stroke="#000000"
       d="m 370.67,-170.64 c -16.37,17.84 -35.14,37.74 -49.41,52.77"
       id="path327" />
    <polygon
       fill="#3db8b8"
       stroke="#000000"
       points="318.6,-120.16 323.67,-115.33 314.25,-110.5 "
       id="polygon329" />
  </g>
  <g
     id="node11"
     class="node"
     transform="translate(4,425.71)">
    <title
       id="title332">getphylo_parser</title>
    <style
       id="style334">.edge&gt;path:hover{stroke-width:8}</style>
    <ellipse
       fill="#47c2c2"
       stroke="#000000"
       cx="586.66998"
       cy="-93.209999"
       rx="43.68"
       ry="21.43"
       id="ellipse336" />
    <text
       text-anchor="middle"
       x="586.66998"
       y="-96.209999"
       font-family="Helvetica, sans-Serif"
       font-size="10px"
       fill="#000000"
       id="text338">getphylo.</text>
    <text
       text-anchor="middle"
       x="586.66998"
       y="-85.209999"
       font-family="Helvetica, sans-Serif"
       font-size="10px"
       fill="#000000"
       id="text340">parser</text>
  </g>
  <g
     id="edge23"
     class="edge"
     transform="translate(4,425.71)">
    <title
       id="title343">getphylo_parser-&gt;getphylo_main</title>
    <style
       id="style345">.edge&gt;path:hover{stroke-width:8}</style>
    <path
       fill="none"
       stroke="#000000"
       d="m 556.48,-77.57 c -23.84,11.56 -57.24,27.75 -82.88,40.18"
       id="path347" />
    <polygon
       fill="#47c2c2"
       stroke="#000000"
       points="472.01,-40.51 475.06,-34.21 464.54,-32.99 "
       id="polygon349" />
  </g>
  <g
     id="edge24"
     class="edge"
     transform="translate(4,425.71)">
    <title
       id="title352">getphylo_screen-&gt;getphylo_align</title>
    <style
       id="style354">.edge&gt;path:hover{stroke-width:8}</style>
    <path
       fill="none"
       stroke="#000000"
       d="m 298.67,-150.16 c 0,8.74 0,19.07 0,28.46"
       id="path356" />
    <polygon
       fill="#2db4b4"
       stroke="#000000"
       points="295.17,-121.64 302.17,-121.64 298.67,-111.64 "
       id="polygon358" />
  </g>
  <g
     id="edge25"
     class="edge"
     transform="matrix(1,0,0,1.0321698,4,430.74071)">
    <title
       id="title361">getphylo_screen-&gt;getphylo_main</title>
    <style
       id="style363">.edge&gt;path:hover{stroke-width:8}</style>
    <path
       fill="none"
       stroke="#000000"
       d="m 267.95,-156.38 c -34.86,17.18 -85.64,45.77 -75.28,62.17"
       id="path365" />
  </g>
  <g
     id="edge26"
     class="edge"
     transform="translate(4,425.71)">
    <title
       id="title368">getphylo_trees-&gt;getphylo_main</title>
    <style
       id="style370">.edge&gt;path:hover{stroke-width:8}</style>
    <path
       fill="none"
       stroke="#000000"
       d="m 435.67,-74.86 c 0,8.48 0,18.88 0,28.41"
       id="path372" />
    <polygon
       fill="#3ab0b0"
       stroke="#000000"
       points="432.17,-46.23 439.17,-46.23 435.67,-36.23 "
       id="polygon374" />
  </g>
</svg>
